{"accessors":[{"bufferView":0,"componentType":5126,"count":2210,"max":[0.499433666467667,0.5,0.499433666467667],"min":[-0.499433666467667,-0.5,-0.499433666467667],"normalized":false,"type":"VEC3"},{"bufferView":1,"componentType":5126,"count":2210,"max":[1.0,0.0,1.0,1.0],"min":[-1.0,-0.0000215795153053477,-1.0,1.0],"normalized":false,"type":"VEC4"},{"bufferView":2,"componentType":5126,"count":2210,"max":[0.998868048191071,1.0,0.998868048191071],"min":[-0.998868823051453,-1.0,-0.998867213726044],"normalized":false,"type":"VEC3"},{"bufferView":3,"componentType":5126,"count":2210,"max":[1.0,1.0],"min":[0.0,0.0],"normalized":false,"type":"VEC2"},{"bufferView":4,"componentType":5123,"count":12672,"max":[2209.0],"min":[0.0],"normalized":false,"type":"SCALAR"},{"bufferView":5,"componentType":5126,"count":2210,"max":[0.499433666467667,0.5,0.499433666467667],"min":[-0.499433666467667,-0.5,-0.499433666467667],"normalized":false,"type":"VEC3"},{"bufferView":6,"componentType":5126,"count":2210,"max":[1.0,0.0,1.0,1.0],"min":[-1.0,-0.0000215795153053477,-1.0,1.0],"normalized":false,"type":"VEC4"},{"bufferView":7,"componentType":5126,"count":2210,"max":[0.998868048191071,1.0,0.998868048191071],"min":[-0.998868823051453,-1.0,-0.998867213726044],"normalized":false,"type":"VEC3"},{"bufferView":8,"componentType":5126,"count":2210,"max":[1.0,1.0],"min":[0.0,0.0],"normalized":false,"type":"VEC2"},{"bufferView":9,"componentType":5123,"count":12672,"max":[2209.0],"min":[0.0],"normalized":false,"type":"SCALAR"}],"asset":{"generator":"Godot Engine v4.5.1.stable.official@f62fdbde15035c5576dad93e586201f4d41ef0cb","version":"2.0"},"bufferViews":[{"buffer":0,"byteLength":26520,"byteStride":12,"target":34962},{"buffer":0,"byteLength":35360,"byteOffset":26520,"byteStride":16,"target":34962},{"buffer":0,"byteLength":26520,"byteOffset":61880,"byteStride":12,"target":34962},{"buffer":0,"byteLength":17680,"byteOffset":88400,"byteStride":8,"target":34962},{"buffer":0,"byteLength":25344,"byteOffset":106080,"target":34963},{"buffer":0,"byteLength":26520,"byteOffset":131424,"byteStride":12,"target":34962},{"buffer":0,"byteLength":35360,"byteOffset":157944,"byteStride":16,"target":34962},{"buffer":0,"byteLength":26520,"byteOffset":193304,"byteStride":12,"target":34962},{"buffer":0,"byteLength":17680,"byteOffset":219824,"byteStride":8,"target":34962},{"buffer":0,"byteLength":25344,"byteOffset":237504,"target":34963}],"buffers":[{"byteLength":262848,"uri":"sandworm0.bin"}],"extensionsUsed":["GODOT_single_root"],"materials":[{"extensions":{},"pbrMetallicRoughness":{"baseColorFactor":[0.630932450294495,0.00000000745058059692383,0.137178689241409,1.0],"metallicFactor":0.0,"roughnessFactor":1.0}},{"extensions":{},"pbrMetallicRoughness":{"baseColorFactor":[0.286541402339935,0.0113317333161831,0.0,1.0],"metallicFactor":0.0,"roughnessFactor":1.0}}],"meshes":[{"primitives":[{"attributes":{"NORMAL":2,"POSITION":0,"TANGENT":1,"TEXCOORD_0":3},"indices":4,"material":0,"mode":4}]},{"primitives":[{"attributes":{"NORMAL":7,"POSITION":5,"TANGENT":6,"TEXCOORD_0":8},"indices":9,"material":1,"mode":4}]}],"nodes":[{"children":[1,2],"name":"Sandworm","scale":[0.204999998211861,0.204999998211861,0.204999998211861]},{"mesh":0,"name":"Head","scale":[300.0,300.0,300.0]},{"children":[3],"name":"Segments"},{"mesh":1,"name":"MeshInstance3D","scale":[300.0,300.0,300.0]}],"scene":0,"scenes":[{"nodes":[0]}]}